<svg id="visual" viewBox="0 0 900 600" width="900" height="600" xmlns="http://www.w3.org/2000/svg" xmlns:xlink="http://www.w3.org/1999/xlink" version="1.1"><path d="M0 484L21.5 477.8C43 471.7 86 459.3 128.8 454.8C171.7 450.3 214.3 453.7 257.2 461.3C300 469 343 481 385.8 488.3C428.7 495.7 471.3 498.3 514.2 491.8C557 485.3 600 469.7 642.8 461.5C685.7 453.3 728.3 452.7 771.2 460.7C814 468.7 857 485.3 878.5 493.7L900 502L900 601L878.5 601C857 601 814 601 771.2 601C728.3 601 685.7 601 642.8 601C600 601 557 601 514.2 601C471.3 601 428.7 601 385.8 601C343 601 300 601 257.2 601C214.3 601 171.7 601 128.8 601C86 601 43 601 21.5 601L0 601Z" fill="#304159" stroke-linecap="round" stroke-linejoin="miter"></path></svg>